<svg width="128" height="128" viewBox="0 0 128 128" fill="none" xmlns="http://www.w3.org/2000/svg">
  <path d="M31 50C20.5066 50 12 58.5066 12 69C12 79.4934 20.5066 88 31 88H97C107.493 88 116 79.4934 116 69C116 58.5066 107.493 50 97 50C96.0717 36.1114 84.5038 25 70.5 25C67.9605 25 65.5306 25.3678 63.2365 26.0504C59.3493 18.9288 51.7697 14 43 14C30.2975 14 20 24.2975 20 37C20 41.6358 21.3723 45.9521 23.7307 49.5642C25.9558 50.1532 28.2525 50 31 50Z" fill="currentColor"/>
  <rect x="26" y="84" width="76" height="15" rx="7.5" fill="currentColor"/>
</svg>
